<svg width="26" height="26" fill="none" xmlns="http://www.w3.org/2000/svg"><path d="M.92 13.44C.92 6.547 6.507.96 13.4.96c6.892 0 12.48 5.587 12.48 12.48 0 6.893-5.588 12.48-12.48 12.48C6.507 25.92.92 20.332.92 13.44Z" fill="#55ACEE"/><path d="m13.026 11.104.026.432-.436-.053c-1.589-.203-2.977-.89-4.155-2.045l-.577-.573-.148.423c-.314.943-.113 1.94.541 2.61.35.37.27.422-.331.202-.21-.07-.393-.124-.41-.097-.062.062.148.864.314 1.18.227.441.69.873 1.195 1.129l.428.203-.506.008c-.489 0-.506.01-.454.194.175.573.864 1.181 1.632 1.446l.542.185-.472.282a4.914 4.914 0 0 1-2.34.652c-.392.009-.715.044-.715.07 0 .088 1.065.582 1.685.776 1.86.573 4.068.326 5.726-.652 1.179-.697 2.357-2.08 2.907-3.42.297-.714.594-2.018.594-2.644 0-.405.026-.458.515-.943.288-.282.558-.59.61-.678.088-.168.08-.168-.366-.018-.742.264-.846.23-.48-.167.27-.282.594-.793.594-.943 0-.027-.131.017-.28.097a4.87 4.87 0 0 1-.768.3l-.471.15-.428-.292c-.236-.158-.567-.335-.742-.387-.445-.124-1.126-.106-1.528.035-1.09.396-1.78 1.419-1.702 2.538Z" fill="#fff"/></svg>